<mxfile host="app.diagrams.net" modified="2024-07-10T23:37:09.633Z" agent="Mozilla/5.0 (Windows NT 10.0; Win64; x64) AppleWebKit/537.36 (KHTML, like Gecko) Chrome/126.0.0.0 Safari/537.36 Edg/126.0.0.0" version="24.6.4" etag="8bjthM89YBo10RLEvi8J" type="github">
  <diagram name="Page-1" id="xAIfx4vgQnntrcuQfzoP">
    <mxGraphModel>
      <root>
        <mxCell id="0" />
        <mxCell id="1" parent="0" />
      </root>
    </mxGraphModel>
  </diagram>
</mxfile>
